<svg width="331" height="231" viewBox="0 0 331 231" fill="none" xmlns="http://www.w3.org/2000/svg">
<path d="M36.1334 190.998L28.5281 193.414C27.6341 190.804 26.4621 188.883 25.0003 187.639C23.5445 186.395 21.551 185.772 19.032 185.772C16.6943 185.772 14.8881 186.407 13.6135 187.669C12.3389 188.938 11.7046 190.387 11.7046 192.025C11.7046 193.831 12.4174 195.274 13.8491 196.344C15.2807 197.419 18.138 198.7 22.4148 200.186C26.0635 201.46 28.8785 202.674 30.8477 203.828C32.817 204.982 34.4118 206.528 35.632 208.461C36.8522 210.394 37.4624 212.636 37.4624 215.185C37.4624 219.317 35.8676 222.838 32.6781 225.744C29.4886 228.65 25.0124 230.105 19.2616 230.105C9.33057 230.105 3.18713 225.514 0.825195 216.339L8.78087 214.285C10.1702 220.338 13.7947 223.37 19.6542 223.37C22.5175 223.37 24.6922 222.693 26.1782 221.334C27.6582 219.975 28.4012 218.302 28.4012 216.308C28.4012 214.84 27.8878 213.487 26.8608 212.237C25.84 210.986 23.2908 209.651 19.2193 208.238C14.9122 206.746 11.8073 205.483 9.90445 204.45C7.99557 203.417 6.37665 201.889 5.04164 199.871C3.70663 197.854 3.03007 195.558 3.03007 192.985C3.03007 189.071 4.52213 185.778 7.50022 183.108C10.4844 180.444 14.4411 179.109 19.3763 179.109C28.1354 179.103 33.7171 183.066 36.1334 190.998Z" fill="#FBB03B"/>
<path d="M45.3516 180.004H76.1594V186.528H54.2556V200.585H71.4295V207.145H54.2556V222.537H76.5158V229.206H45.3516V180.004Z" fill="#FBB03B"/>
<path d="M82.46 180.004H98.6552C104.515 180.004 108.834 181.218 111.619 183.646C114.403 186.075 115.793 189.554 115.793 194.097C115.793 200.15 113.05 204.439 107.559 206.964L117.762 229.2H108.103L99.7426 208.655H91.364V229.2H82.46V180.004ZM91.3701 186.31V202.349H98.184C101.229 202.349 103.47 201.581 104.901 200.041C106.333 198.501 107.046 196.495 107.046 194.024C107.046 188.884 104.116 186.31 98.2626 186.31H91.3701Z" fill="#FBB03B"/>
<path d="M119.574 180.004H128.931L139.17 219.257L149.452 180.004H157.317L143.109 229.309L133.462 229.2L119.574 180.004Z" fill="#FBB03B"/>
<path d="M162.162 180.004H192.97V186.528H171.066V200.585H188.24V207.145H171.066V222.537H193.326V229.206H162.162V180.004Z" fill="#FBB03B"/>
<path d="M259.321 180.004H268.026V210.534C268.026 213.947 268.225 216.46 268.618 218.085C269.011 219.704 269.911 220.99 271.318 221.939C272.72 222.887 274.622 223.364 277.009 223.364C279.268 223.364 281.026 222.972 282.288 222.193C283.551 221.413 284.445 220.308 284.97 218.876C285.496 217.444 285.756 214.617 285.756 210.389V180.004H293.754V209.99C293.754 214.799 293.379 218.496 292.63 221.093C291.881 223.691 290.147 225.841 287.429 227.545C284.711 229.248 281.068 230.106 276.495 230.106C272.949 230.106 269.868 229.574 267.259 228.505C264.643 227.436 262.668 225.708 261.333 223.316C259.992 220.924 259.321 216.665 259.321 210.54V180.004Z" fill="#FBB03B"/>
<path d="M297.215 180.004H330.071V186.927H318.055V229.206H309.151V186.927H297.215V180.004Z" fill="#FBB03B"/>
<path d="M203.488 205.235C205.494 206.202 207.403 207.211 209.39 208.044C210.719 208.6 211.432 209.403 211.909 210.817C214.621 218.821 222.209 223.925 230.635 223.587C239.582 223.231 247.205 216.429 248.564 207.603C248.583 207.483 248.589 207.362 248.607 207.15C248.075 207.301 247.598 207.44 247.127 207.573C244.106 208.449 241.086 209.319 238.072 210.213C237.703 210.322 237.407 210.273 237.117 210.062C234.55 208.201 232.472 205.882 230.799 203.2C230.466 202.668 230.587 202.088 230.714 201.52C230.811 201.097 230.931 200.687 231.028 200.264C231.064 200.089 231.058 199.907 231.004 199.708C230.454 200.741 230.225 202.046 228.648 202.07C228.557 201.774 228.461 201.454 228.328 201.007C228.074 201.623 227.893 202.149 227.651 202.632C227.385 203.157 227.126 203.707 226.745 204.142C226.087 204.885 224.993 205.036 224.172 204.601C223.628 204.317 223.495 203.931 223.803 203.399C224.51 202.191 225.223 200.977 225.978 199.799C226.159 199.515 226.473 199.255 226.787 199.122C227.881 198.669 228.998 198.264 230.116 197.872C230.968 197.576 231.741 197.727 232.417 198.355C233.511 199.37 234.634 200.36 235.71 201.393C236.024 201.695 236.253 201.738 236.634 201.544C240.893 199.376 245.163 197.231 249.428 195.075C250.757 194.404 252.08 193.716 253.409 193.039C256.744 199.025 257.94 209.857 251.851 219.081C245.284 229.036 232.907 233.385 221.574 229.64C210.212 225.895 203.603 215.426 203.488 205.235Z" fill="#2A9DF4"/>
<path d="M227.005 214.141C227.53 213.053 227.289 212.129 226.612 211.277C226.274 210.848 225.839 210.794 225.289 211.042C225.325 210.317 225.247 209.671 224.631 209.242C224.015 208.813 223.652 208.843 222.849 209.417C222.692 209.211 222.547 208.994 222.371 208.807C221.852 208.275 221.357 208.215 220.807 208.71C220.348 209.127 219.967 209.634 219.502 210.154C216.421 208.698 213.274 207.218 210.127 205.726C208.115 204.771 206.122 203.775 204.098 202.838C203.621 202.621 203.53 202.355 203.591 201.884C204.684 193.161 208.925 186.42 216.47 181.919C228.485 174.749 244.1 178.422 251.802 190.117C251.887 190.25 251.965 190.388 252.068 190.564C249.887 191.681 247.731 192.787 245.574 193.886C240.796 187.604 234.556 184.68 226.697 185.882C220.716 186.8 216.282 190.141 213.177 195.348C213.31 195.463 213.407 195.559 213.516 195.638C215.787 197.251 218.07 198.858 220.336 200.477C220.644 200.7 220.849 200.724 221.169 200.477C222.619 199.383 224.093 198.32 225.567 197.257C226.697 196.441 227.621 196.496 228.732 197.462C228.08 197.728 227.47 198 226.836 198.229C226.159 198.477 225.67 198.912 225.307 199.528C224.709 200.549 224.099 201.57 223.477 202.585C223.024 203.334 222.728 204.083 223.344 204.88C223.858 205.545 224.999 205.81 225.917 205.521C226.866 205.218 227.53 204.584 227.977 203.726C228.291 203.128 228.763 202.802 229.415 202.76C229.608 202.748 229.935 202.851 229.989 202.989C230.714 204.717 231.934 206.088 233.142 207.466C234.332 208.819 235.661 210.027 237.183 211.012C237.395 211.151 237.54 211.616 237.492 211.887C237.401 212.389 237.202 212.89 236.948 213.337C236.477 214.147 235.764 214.274 234.985 213.694C233.988 212.951 233.033 212.159 232.067 211.386C231.553 210.969 231.046 210.546 230.545 210.13C230.188 210.444 230.351 210.631 230.599 210.848C232.061 212.129 233.511 213.422 234.985 214.69C235.269 214.938 235.311 215.137 235.178 215.47C234.695 216.69 233.782 216.968 232.768 216.134C231.686 215.24 230.653 214.286 229.602 213.361C229.403 213.186 229.204 213.005 228.998 212.824C228.678 213.12 228.823 213.325 229.065 213.549C230.194 214.606 231.312 215.681 232.447 216.726C232.707 216.968 232.768 217.173 232.568 217.457C232.538 217.499 232.514 217.548 232.49 217.596C231.819 218.798 231.36 218.889 230.333 218.013C230.007 217.735 229.693 217.433 229.355 217.167C228.823 216.75 228.418 216.327 228.358 215.566C228.31 214.853 227.826 214.31 227.005 214.141Z" fill="#FBB03B"/>
<path d="M226.625 212.988C226.619 213.042 226.631 213.103 226.613 213.145C226.002 214.414 225.435 215.706 224.758 216.939C224.547 217.331 224.015 217.325 223.574 217.15C223.121 216.969 222.795 216.637 222.801 216.153C222.807 215.779 222.891 215.35 223.085 215.036C223.677 214.099 224.335 213.199 224.988 212.299C225.229 211.967 225.549 211.568 225.996 211.762C226.486 211.961 226.601 212.48 226.625 212.988Z" fill="#FBB03B"/>
<path d="M224.752 210.551C224.625 210.914 224.577 211.186 224.45 211.409C223.919 212.345 223.375 213.276 222.819 214.2C222.481 214.756 222.203 214.756 221.798 214.236C221.315 213.62 221.104 212.968 221.605 212.273C222.161 211.506 222.729 210.751 223.321 210.008C223.544 209.73 223.895 209.639 224.191 209.869C224.42 210.05 224.571 210.328 224.752 210.551Z" fill="#FBB03B"/>
<path d="M226.401 218.334C225.887 218.346 225.253 217.609 225.356 217.18C225.549 216.346 226.02 215.67 226.697 215.156C226.836 215.048 227.198 214.999 227.265 215.078C227.506 215.368 227.845 215.742 227.814 216.05C227.736 216.86 227.373 217.597 226.769 218.165C226.655 218.267 226.473 218.298 226.401 218.334Z" fill="#FBB03B"/>
<path d="M222.257 209.817C222.269 210.548 221.466 211.786 220.988 211.974C220.928 211.998 220.85 212.022 220.789 212.004C220.433 211.913 219.949 210.947 220.143 210.645C220.421 210.216 220.729 209.793 221.085 209.424C221.224 209.279 221.58 209.189 221.738 209.267C221.985 209.406 222.148 209.702 222.257 209.817Z" fill="#FBB03B"/>
<path d="M228.218 217.133C228.78 217.622 229.276 218.051 229.771 218.48C229.342 219.223 228.424 219.32 227.898 218.679C227.838 218.607 227.832 218.45 227.856 218.347C227.953 217.979 228.073 217.604 228.218 217.133Z" fill="#FBB03B"/>
<path d="M184.756 140.786C189.957 133.507 194.319 125.756 196.391 116.931C199.351 104.324 196.095 93.4263 187.348 83.9967C184.068 80.4628 180.347 77.4847 176.456 74.6999C174.831 73.5341 173.092 72.5374 171.406 71.4621C171.654 72.1206 172.071 72.5253 172.494 72.9119C177.278 77.2914 181.428 82.2086 184.605 87.8567C191.335 99.8295 192.12 112.346 187.662 125.267C184.352 134.854 179.036 143.305 172.922 151.303C172.119 152.354 171.285 153.387 170.464 154.426C170.355 154.365 170.246 154.305 170.132 154.245C170.355 152.976 170.458 151.665 170.826 150.445C173.007 143.281 175.188 136.116 177.489 128.994C179.724 122.072 181.827 115.125 182.207 107.815C182.817 96.0117 178.559 86.0203 170.5 77.5814C166.858 73.7636 162.985 70.1633 159.18 66.5087C153.773 61.3257 149.092 55.7441 146.984 48.2898C145.89 44.4237 144.09 40.769 140.103 38.8239C143.407 36.3653 145.51 36.5707 148.041 39.5428C148.542 40.1348 149.007 40.757 149.49 41.361C150.094 42.1161 150.668 42.9014 151.315 43.6263C154.341 47.0333 159.15 46.9669 162.073 43.4632C162.816 42.5752 163.463 41.6027 164.151 40.6663C165.396 38.981 167.003 37.7547 168.99 37.1144C173.72 35.5982 178.54 36.5768 183.5 36.4257C182.032 39.5971 179.326 39.9233 176.638 40.1227C176.474 46.2903 176.474 46.2903 170.277 46.1816C168.833 51.588 168.036 52.0532 162.557 50.7544C164.502 51.9142 166.447 52.9653 168.863 52.035C169.558 51.7693 170.343 51.5941 171.08 51.5941C185.475 51.5699 199.864 51.5759 214.259 51.5759C214.869 51.5759 215.474 51.5759 216.102 51.5759C216.102 46.4413 216.102 41.5241 216.102 36.4257C215.425 36.4257 214.857 36.4257 214.284 36.4257C209.294 36.4257 204.292 36.6251 199.315 36.3653C194.705 36.1237 190.127 37.0177 185.433 35.6223C181.772 34.535 177.658 34.9156 173.744 34.7585C172.379 34.7041 170.995 34.982 169.455 35.1209C169.455 23.3233 169.455 11.6707 169.455 0C164.381 0 159.464 0 154.396 0C154.396 12.1298 154.396 24.1751 154.396 36.4137C138.804 36.4137 123.37 36.4137 107.821 36.4137C107.821 41.5664 107.821 46.5198 107.821 51.5639C111.174 51.5639 114.418 51.5639 117.662 51.5639C126.819 51.5639 135.977 51.5639 145.135 51.5639C145.793 51.5639 146.452 51.4189 146.778 52.325C148.252 56.4448 150.759 59.9243 153.544 63.2527C154.045 63.8508 154.365 64.7931 154.365 65.5784C154.42 76.9652 154.402 88.3521 154.408 99.7389C154.408 100.252 154.408 100.76 154.408 101.273C154.559 101.334 154.716 101.394 154.867 101.448C157.114 97.4192 159.464 93.4444 161.572 89.3488C163.728 85.1625 164.876 80.6259 165.317 75.7148C165.746 76.0954 165.982 76.2585 166.163 76.4699C170.452 81.4596 173.889 86.9868 176.444 93.0397C178.673 98.3253 179.688 103.865 178.486 109.507C177.513 114.074 176.076 118.562 174.59 122.996C172.337 129.701 170.186 136.412 169.467 143.492C169.201 146.102 168.99 148.717 168.76 151.327C168.374 149.333 168.144 147.328 168.072 145.316C167.824 138.514 169.032 131.906 171.062 125.454C173.955 116.23 174.245 107.012 171.479 97.7333C170.615 94.8277 169.624 91.9584 168.694 89.083C167.009 92.1336 165.583 95.1117 163.783 97.8481C161.952 100.633 159.723 103.152 157.736 105.834C155.61 108.709 153.399 111.549 151.514 114.581C148.059 120.163 147.189 126.197 149.031 132.558C150.397 137.27 152.722 141.493 155.61 145.419C157.337 147.769 159.216 150.004 161.022 152.287C161.197 152.251 161.373 152.209 161.542 152.173C158.606 140.061 162.961 129.816 169.54 120.12C164.508 133.12 162.792 146.543 164.465 160.406C164.308 160.467 164.157 160.521 164 160.581C160.841 156.939 157.688 153.296 154.516 149.635C154.516 153.798 154.516 157.887 154.516 162.043C159.337 162.043 164.037 162.055 168.73 162.013C169.05 162.013 169.473 161.675 169.673 161.373C170.844 159.603 171.853 157.718 173.122 156.021C176.97 150.916 181.041 145.981 184.756 140.786Z" fill="#FBB03B"/>
<path d="M71.317 132.026C81.4172 137.638 94.1148 134.068 99.6723 124.059C105.236 114.049 101.557 101.382 91.4569 95.7699C81.3568 90.158 68.6591 93.7281 63.1016 103.738C57.5441 113.747 61.2169 126.415 71.317 132.026Z" fill="#FBB03B"/>
<path d="M146.808 133.219C146.784 133.134 146.76 133.044 146.736 132.959L141.317 123.499C140.804 122.279 140.496 121.566 140.496 121.566L146.458 131.89C146.458 131.884 146.458 131.884 146.458 131.878C146.452 131.842 146.44 131.806 146.434 131.775L119.667 85.4488C119.685 85.4971 119.843 85.8475 120.102 86.4636C120.102 86.4697 120.108 86.4757 120.108 86.4757L80.3722 17.0977C80.3722 17.0977 99.014 60.3253 109.561 96.5698C111.416 101.94 113.083 114.305 105.84 127.341C98.5972 140.383 87.3191 145.288 85.0961 145.983C52.6814 159.116 0 161.743 0 161.743L152.185 161.931V161.895V161.834V149.638C152.185 148.665 152.789 147.795 153.695 147.457C153.84 147.403 153.985 147.366 154.13 147.342C153.997 147.161 153.864 146.98 153.731 146.799C150.415 142.268 148.143 137.828 146.808 133.219Z" fill="#FBB03B"/>
<path d="M330.901 162.048C330.901 162.048 284.145 156.575 247.478 147.593C241.902 146.511 230.364 141.775 222.693 128.981C215.021 116.187 216.41 103.966 216.918 101.695C221.708 67.4138 245.327 21.0752 245.804 20.1328L199.037 100.91C199.061 101.031 199.091 101.145 199.115 101.266C199.315 102.275 199.472 103.296 199.575 104.323C200.028 108.539 199.72 112.919 198.656 117.455C197.339 123.067 195.068 128.601 191.655 134.448C190.199 136.943 188.532 139.492 186.653 142.132C184.4 145.285 181.99 148.372 179.664 151.362C179.628 151.41 179.586 151.459 179.549 151.513C178.045 153.446 176.493 155.44 175.001 157.421C174.288 158.375 173.648 159.421 172.977 160.52C172.778 160.84 172.584 161.166 172.373 161.499C172.295 161.625 172.216 161.752 172.131 161.885C172.125 161.891 172.119 161.903 172.113 161.915L252.075 161.897C252.075 161.897 251.694 161.855 250.993 161.77L330.901 162.048Z" fill="#FBB03B"/>
<path d="M228.618 125.279C234.508 135.101 247.333 138.236 257.264 132.286C267.195 126.33 270.469 113.542 264.585 103.719C258.695 93.8971 245.871 90.7619 235.94 96.7121C226.003 102.668 222.729 115.457 228.618 125.279Z" fill="#FBB03B"/>
</svg>
