<svg width="24" height="24" viewBox="0 0 24 24" fill="none" xmlns="http://www.w3.org/2000/svg">
<g clip-path="url(#clip0_27037_3069)">
<path d="M18.5464 12.7628C18.5704 10.8928 19.5504 9.16579 21.1434 8.18679C20.1344 6.74479 18.5034 5.86379 16.7444 5.80879C14.8934 5.61479 13.0994 6.91579 12.1564 6.91579C11.1954 6.91579 9.74336 5.82779 8.17936 5.85979C6.12236 5.92679 4.25036 7.06779 3.24936 8.86679C1.11836 12.5568 2.70736 17.9808 4.74936 20.9638C5.77136 22.4248 6.96436 24.0558 8.52736 23.9988C10.0564 23.9358 10.6274 23.0238 12.4724 23.0238C14.3004 23.0238 14.8364 23.9988 16.4304 23.9618C18.0704 23.9348 19.1044 22.4948 20.0904 21.0198C20.8244 19.9788 21.3894 18.8288 21.7634 17.6118C19.8154 16.7878 18.5484 14.8788 18.5464 12.7628Z" fill="#0D0D0D"/>
<path d="M15.5358 3.847C16.4298 2.773 16.8708 1.393 16.7638 0C15.3978 0.144 14.1348 0.797 13.2288 1.829C12.3338 2.848 11.8798 4.18 11.9678 5.534C13.3528 5.548 14.6678 4.926 15.5358 3.847Z" fill="#0D0D0D"/>
</g>
<defs>
<clipPath id="clip0_27037_3069">
<rect width="24" height="24" fill="white"/>
</clipPath>
</defs>
</svg>
