<svg width="24" height="28" viewBox="0 0 24 28" fill="none" xmlns="http://www.w3.org/2000/svg">
<path d="M21.189 27.9968H2.83465C2.45669 27.9968 2.07874 27.9284 1.72441 27.7917C1.3937 27.655 1.08661 27.45 0.826772 27.1994C0.566929 26.9488 0.354331 26.6526 0.212599 26.3336C0.0708663 25.9919 0 25.6501 0 25.2628V6.83159C0 6.46706 0.0708663 6.10254 0.212599 5.7608C0.354331 5.44184 0.566929 5.14566 0.826772 4.89505C1.08661 4.64444 1.3937 4.4394 1.72441 4.3027C2.07874 4.166 2.43307 4.09766 2.83465 4.09766H5.62205V5.46462H2.83465C2.05512 5.46462 1.41732 6.07976 1.41732 6.83159V25.2628C1.41732 26.0147 2.05512 26.6298 2.83465 26.6298H21.189C21.9685 26.6298 22.6063 26.0147 22.6063 25.2628V6.83159C22.6063 6.07976 21.9685 5.46462 21.189 5.46462H18.4016V4.09766H21.1654C21.5433 4.09766 21.9213 4.166 22.2756 4.3027C22.6063 4.4394 22.9134 4.64444 23.1732 4.89505C23.4331 5.14566 23.6457 5.44184 23.7874 5.7608C23.9291 6.10254 24 6.44428 24 6.83159V25.2628C24 25.6274 23.9291 25.9919 23.7874 26.3336C23.6457 26.6526 23.4331 26.9488 23.1732 27.1994C22.9134 27.45 22.6063 27.655 22.2756 27.7917C21.9449 27.9284 21.5669 27.9968 21.189 27.9968Z" fill="black"/>
<path d="M19.0623 8.19788H4.93633V3.77803C4.93633 2.84394 5.71586 2.06932 6.70798 2.06932H8.52688C9.1883 0.816273 10.5111 -0.00390625 11.9993 -0.00390625C13.4875 -0.00390625 14.8103 0.816273 15.4718 2.06932H17.2907C18.2592 2.06932 19.0623 2.82115 19.0623 3.77803V8.19788ZM6.35365 6.83092H17.645V3.77803C17.645 3.59577 17.4796 3.43629 17.2907 3.43629H14.5033L14.3379 2.98063C13.9836 2.02376 13.0623 1.38584 11.9993 1.38584C10.9363 1.38584 10.0151 2.02376 9.66074 2.98063L9.49539 3.43629H6.70798C6.51901 3.43629 6.35365 3.59577 6.35365 3.77803V6.83092ZM9.6135 21.9814C9.42452 21.9814 9.25917 21.9131 9.11743 21.7764L4.29854 17.1287C4.1568 16.992 4.08594 16.8325 4.08594 16.6503C4.08594 16.468 4.1568 16.3085 4.29854 16.1718C4.44027 16.0352 4.60562 15.9668 4.7946 15.9668C4.98358 15.9668 5.14893 16.0352 5.29066 16.1718L9.1883 19.931C9.30641 20.0449 9.44814 20.0905 9.58987 20.0905C9.73161 20.0905 9.89696 20.0449 9.99145 19.931L18.708 11.5242C18.8497 11.3875 19.0151 11.3191 19.204 11.3191C19.393 11.3191 19.5584 11.3875 19.7001 11.5242C19.9836 11.7976 19.9836 12.2076 19.7001 12.481L10.1096 21.7764C9.96783 21.8903 9.77885 21.9814 9.6135 21.9814Z" fill="black"/>
</svg>
