<svg width="108" height="24" viewBox="0 0 108 24" fill="none" xmlns="http://www.w3.org/2000/svg">
<rect x="85.5" y="1.5" width="21" height="21" fill="#1271CD"/>
<path d="M90.3926 12.4216L93.7515 4.91406H96.9518L98.0891 7.46031V4.91406H102.083L102.744 6.88281L103.432 4.91406H106.5V5.80661H104.066L102.77 9.37661L101.422 5.80661H98.9355V11.5554L96.3964 5.80661H94.307L91.7415 11.5554H93.5136L93.9632 10.4266H96.6609L97.137 11.5554H98.9355H100.522V7.56536L102.003 11.5554H103.432L104.966 7.56536V11.5554H106.5V12.4216H104.437L102.718 14.2591L101.025 12.4216H98.9619H93.9896V18.1966H98.9619H101.025L102.718 16.3591L104.437 18.1966H106.5V19.0628H104.013L102.744 17.6453L101.395 19.0628H93.0639V12.4216H90.3926Z" fill="white"/>
<path d="M106.5 18.1966V17.0141L104.939 15.3353L106.5 13.7005V12.4216L103.749 15.3354L106.5 18.1966Z" fill="white"/>
<path d="M98.9619 18.1966V16.9104H95.5501V15.9916H98.8561V14.7054H95.5501V13.7866H98.9619V12.4216L101.713 15.3354L98.9619 18.1966Z" fill="white"/>
<path d="M95.3385 7.22411L94.5186 9.14036H96.1319L95.3385 7.22411Z" fill="white"/>
<path d="M29.5 12C29.5 6.20101 34.201 1.5 40 1.5C45.799 1.5 50.5 6.20101 50.5 12C50.5 17.799 45.799 22.5 40 22.5C34.201 22.5 29.5 17.799 29.5 12Z" fill="#172A73"/>
<path d="M32.1816 7.30469V7.7515L33.8151 8.00867C34.9725 8.19089 35.9053 9.06085 36.175 10.2095L38.0871 18.3544C38.1345 18.5559 38.3131 18.6983 38.5187 18.6983H41.2019C41.3789 18.6983 41.539 18.5922 41.6091 18.4285L46.2377 7.61658C46.3009 7.4691 46.1936 7.30469 46.0342 7.30469H43.5619C43.3834 7.30469 43.2223 7.41255 43.1531 7.57838L40.0524 15.0121L38.8155 8.39694C38.6971 7.76349 38.148 7.30469 37.5083 7.30469H32.1816Z" fill="white"/>
<circle cx="68" cy="12" r="10.5" fill="#3C60A7"/>
<path d="M61.9755 11.1821C61.9735 10.5814 62.4178 10.2057 62.9286 10.194C63.0518 10.1925 63.199 10.2519 63.3221 10.3014C63.3672 10.3196 63.4091 10.3365 63.4453 10.3485C63.5725 10.3916 63.6019 10.3818 63.6547 10.3857C63.7702 10.3935 63.917 10.3877 63.9444 10.2683H64.0716L63.7722 11.2839H63.6547C63.6058 10.8827 63.4473 10.4992 63.0832 10.5031C62.8875 10.507 62.6918 10.5833 62.6292 10.8573C62.5528 11.188 62.7192 11.3875 63.1459 11.8004C63.4218 12.0704 63.6332 12.3013 63.6352 12.6437C63.6391 13.3031 63.1067 13.6573 62.5646 13.6593C62.3344 13.6604 62.2008 13.609 62.0918 13.5671C62.0127 13.5366 61.9465 13.5112 61.8659 13.5145C61.8541 13.5149 61.8404 13.5152 61.8254 13.5154C61.7093 13.5175 61.5093 13.521 61.4764 13.6319H61.3492L61.6838 12.4168H61.8111C61.6897 12.9275 61.997 13.3501 62.4373 13.3501C62.7348 13.3501 63.0108 13.0899 63.0186 12.9235C63.0312 12.5984 62.9741 12.5459 62.7926 12.3793C62.7196 12.3123 62.6265 12.2269 62.5098 12.0978L62.4611 12.0439C62.2151 11.7719 61.9773 11.5088 61.9755 11.1821Z" fill="white"/>
<path d="M64.1714 10.5305L64.2086 10.3309H65.3223L65.2675 10.5305C65.0751 10.5305 65.0765 10.6333 65.0775 10.7059C65.0775 10.7108 65.0776 10.7157 65.0776 10.7203V12.225L65.105 12.2074L65.839 11.0216V10.7399C65.8409 10.5853 65.7665 10.5344 65.5943 10.5305L65.6315 10.3309H66.7745L66.7373 10.5305C66.5729 10.5305 66.5142 10.5344 66.5201 10.7477C66.522 10.7907 66.5201 10.8455 66.5201 10.9023V12.1526L66.5377 12.18L67.3813 10.8025C67.4184 10.7321 67.4302 10.687 67.4263 10.6303C67.4199 10.5202 67.3198 10.5233 67.1611 10.5282C67.1251 10.5293 67.0862 10.5305 67.0446 10.5305L67.0818 10.3309H68.1074L68.0623 10.5305C67.8686 10.5344 67.8118 10.6284 67.7355 10.7653C67.7355 10.7653 66.0719 13.5106 65.9936 13.6299C65.9153 13.7493 65.839 13.6299 65.839 13.6299L65.8488 11.5813V11.5186C65.8488 11.5186 64.6451 13.5125 64.5707 13.6319C64.4963 13.7512 64.4435 13.6319 64.4435 13.6319V10.9023C64.4435 10.5305 64.3726 10.5305 64.1776 10.5305H64.1714Z" fill="white"/>
<path d="M68.2248 10.5305L68.262 10.3309H69.5909L69.5459 10.5305C69.3071 10.5344 69.1486 10.556 69.084 10.7751L68.4499 13.1153C68.4442 13.135 68.4376 13.1535 68.4313 13.1713C68.4182 13.2082 68.4062 13.2421 68.4049 13.2777L68.4043 13.2882C68.4002 13.3673 68.3971 13.4285 68.6221 13.4323L68.5771 13.6319H67.2443L67.2814 13.4323C67.53 13.4342 67.7159 13.3521 67.7531 13.1975L68.3794 10.8671C68.401 10.781 68.4284 10.7125 68.4244 10.6675C68.4147 10.5618 68.3187 10.5266 68.2248 10.5305Z" fill="white"/>
<path d="M69.7319 10.5305L69.7769 10.3309H72.0707L71.8359 11.2095H71.7086C71.74 10.6694 71.511 10.6068 71.1273 10.6107C71.1147 10.611 71.1027 10.6111 71.0913 10.6113C70.9046 10.6137 70.8738 10.6141 70.7927 10.8925L70.593 11.6908H70.7202C70.8201 11.6947 71.098 11.6908 71.2291 11.3562L71.3563 11.3738L71.1215 12.3444H70.9669C70.9631 12.3181 70.962 12.2868 70.9613 12.2508C70.9605 12.2118 70.9601 12.1673 70.9571 12.1174C70.9492 11.9687 70.8709 11.9335 70.595 11.9354H70.5323L70.2427 12.9333C70.2294 12.9978 70.2092 13.0721 70.195 13.1243L70.1879 13.1505C70.1253 13.3892 70.2505 13.4323 70.5597 13.4323L70.505 13.6319H69.0899L69.1447 13.4323C69.3228 13.4264 69.4696 13.3618 69.5166 13.1505L70.1233 10.8847C70.1429 10.8025 70.1253 10.826 70.1409 10.7751C70.2073 10.5636 69.9746 10.5475 69.7831 10.5342C69.7656 10.533 69.7484 10.5318 69.7319 10.5305Z" fill="white"/>
<path d="M72.0081 11.2095L72.2527 10.3309H74.5113L74.2765 11.2095H74.1395C74.1688 10.7986 74.0749 10.6107 73.6052 10.6107L72.9886 12.9588C72.9756 13.0166 72.9605 13.0695 72.9476 13.1148C72.939 13.1446 72.9314 13.1711 72.926 13.1936C72.8888 13.3403 73.0063 13.4656 73.1981 13.448L73.1609 13.6299H71.6636L71.7086 13.4303L71.7226 13.4301C72.0038 13.4244 72.2261 13.42 72.2703 13.0312L72.9319 10.6107C72.6794 10.6107 72.5189 10.6636 72.3702 10.7927C72.2372 10.9113 72.2247 10.9556 72.1689 11.153C72.164 11.1705 72.1587 11.1893 72.1529 11.2095H72.0081Z" fill="white"/>
<path d="M66.4027 13.4773C66.4242 13.3579 66.5064 13.2601 66.5847 13.2601C66.663 13.2601 66.7138 13.3579 66.6943 13.4773C66.6727 13.5967 66.5905 13.6945 66.5122 13.6945C66.432 13.6945 66.3831 13.5967 66.4027 13.4773Z" fill="white"/>
<path d="M68.7239 13.4773C68.7454 13.3579 68.8276 13.2601 68.9059 13.2601C68.9842 13.2601 69.0351 13.3579 69.0155 13.4773C68.994 13.5967 68.9118 13.6945 68.8335 13.6945C68.7533 13.6945 68.7043 13.5967 68.7239 13.4773Z" fill="white"/>
<path d="M70.7202 13.4773C70.7418 13.3579 70.824 13.2601 70.9023 13.2601C70.9805 13.2601 71.0217 13.3579 71.0021 13.4773C70.9805 13.5967 70.8984 13.6945 70.8201 13.6945C70.7418 13.6945 70.7007 13.5967 70.7202 13.4773Z" fill="white"/>
<path d="M63.5823 13.4851C63.6019 13.3658 63.6763 13.2679 63.7546 13.2679C63.8328 13.2699 63.8837 13.3658 63.8642 13.4851C63.8426 13.6045 63.7604 13.7023 63.6821 13.7023C63.6038 13.7023 63.5628 13.6045 63.5823 13.4851Z" fill="white"/>
<path d="M73.386 13.4851C73.4075 13.3658 73.4897 13.2679 73.568 13.2679C73.6463 13.2699 73.6971 13.3658 73.6776 13.4851C73.656 13.6045 73.5738 13.7023 73.4955 13.7023C73.4153 13.7023 73.3664 13.6045 73.386 13.4851Z" fill="white"/>
<path fill-rule="evenodd" clip-rule="evenodd" d="M65.0799 18.911C66.0056 19.3024 66.9881 19.5 68 19.5C69.0119 19.5 69.9944 19.3004 70.9201 18.9071C71.8126 18.5295 72.6151 17.9894 73.304 17.3007C73.993 16.6119 74.5331 15.8097 74.9109 14.9174C75.3023 13.9919 75.5 13.0096 75.5 11.9981C75.5 10.9864 75.3023 10.0042 74.9109 9.07867C74.5331 8.18642 73.993 7.38416 73.304 6.69541C72.6151 6.00666 71.8126 5.46661 70.9201 5.08896C69.9944 4.69762 69.0119 4.5 68 4.5C66.9881 4.5 66.0056 4.69762 65.0799 5.08896C64.1854 5.46661 63.3849 6.01057 62.696 6.69933C62.007 7.38808 61.4669 8.19033 61.0891 9.08258C60.6977 10.0081 60.5 10.9904 60.5 12.002C60.5 13.0136 60.6977 13.9958 61.0891 14.9213C61.4669 15.8136 62.007 16.6158 62.696 17.3046C63.3849 17.9933 64.1874 18.5334 65.0799 18.911ZM68.184 19.0695V17.0854H70.4074C70.1823 17.3809 69.9318 17.6646 69.6558 17.9347C68.9943 18.5804 68.3758 18.958 68.184 19.0695ZM66.3462 17.9209C66.0761 17.6568 65.8295 17.377 65.6102 17.0854H67.7925V19.05C67.5714 18.9208 66.9783 18.5432 66.3462 17.9209ZM67.0762 19.048C65.5555 18.8523 64.1463 18.1734 63.0326 17.0854H65.1268C65.4008 17.4807 65.7218 17.8564 66.0819 18.2105C66.4538 18.5764 66.81 18.8562 67.0762 19.048ZM69.92 18.2223C70.286 17.8662 70.6109 17.4846 70.8908 17.0854H72.9654C71.8557 18.1694 70.4524 18.8484 68.9355 19.0461C69.2135 18.8465 69.5599 18.5725 69.92 18.2223ZM73.3392 16.6941H71.1472C71.1511 16.6863 71.155 16.6804 71.1609 16.6726C71.5543 16.0191 71.8302 15.3225 71.9809 14.5985H74.6232C74.3237 15.3596 73.8912 16.068 73.3392 16.6941ZM70.6833 16.6941H68.184V14.5965H71.5797C71.4349 15.2462 71.1824 15.8743 70.8282 16.4632C70.7812 16.5415 70.7342 16.6178 70.6833 16.6941ZM67.7925 16.6941H65.3343C65.2975 16.639 65.2625 16.5829 65.2281 16.5272C65.2112 16.4999 65.1945 16.4726 65.1777 16.4456C64.8313 15.8605 64.5847 15.2403 64.4438 14.5985H67.7925V16.6941ZM64.8724 16.6941H62.6608C62.1069 16.068 61.6763 15.3596 61.3768 14.5965H64.0445C64.1913 15.3127 64.4614 16.0034 64.8469 16.6511C64.8548 16.6667 64.8646 16.6804 64.8724 16.6941ZM74.7621 14.2072H61.2359C61.0089 13.5027 60.8895 12.7611 60.8895 12C60.8895 11.2428 61.0069 10.5051 61.234 9.80459H74.766C74.9931 10.5031 75.1105 11.2428 75.1105 12C75.1105 12.7611 74.9911 13.5047 74.7621 14.2072ZM74.6271 9.4113H71.9164C71.7696 8.69318 71.5014 7.99857 71.1159 7.34699C71.1102 7.33985 71.1055 7.33168 71.1011 7.32399C71.0995 7.32113 71.0979 7.31834 71.0963 7.31568H73.349C73.901 7.94181 74.3296 8.65015 74.6271 9.4113ZM71.5171 9.4113H68.184V7.31371H70.6364C70.6852 7.38984 70.7344 7.46658 70.7792 7.54461C71.1276 8.13554 71.3762 8.76363 71.5171 9.4113ZM67.7925 9.4113H64.3909C64.5358 8.75972 64.7902 8.12965 65.1484 7.53678C65.1934 7.46244 65.2403 7.39005 65.2893 7.31568H67.7925V9.4113ZM63.9897 9.4113H61.3729C61.6704 8.65015 62.099 7.94181 62.651 7.31568H64.8274C64.8235 7.3196 64.8215 7.32351 64.8195 7.32742C64.4183 7.98486 64.1404 8.68536 63.9897 9.4113ZM72.9791 6.92434H70.8458C70.5698 6.52322 70.2488 6.14165 69.8887 5.78162C69.5325 5.42747 69.19 5.14961 68.914 4.94808C70.4445 5.14375 71.8616 5.82859 72.9791 6.92434ZM70.3643 6.92434H68.184V4.93048C68.4012 5.05962 68.9845 5.43725 69.6127 6.05949C69.8887 6.33538 70.1412 6.62302 70.3643 6.92434ZM67.7925 6.92434H65.5692C65.7982 6.62496 66.0546 6.33538 66.3383 6.0634C66.9685 5.45096 67.5616 5.07722 67.7925 4.94222V6.92434ZM65.0838 6.92434H63.0209C64.1326 5.83447 65.5398 5.15158 67.0586 4.952C66.7787 5.15158 66.4342 5.42356 66.0741 5.77185C65.7003 6.13383 65.3695 6.51931 65.0838 6.92434Z" fill="white"/>
<circle cx="7.5" cy="12" r="6.75" fill="#E80B26"/>
<circle cx="16.5" cy="12" r="6.75" fill="#F59D31"/>
<path d="M12 17.0311C13.381 15.7952 14.25 13.9991 14.25 11.9999C14.25 10.0008 13.381 8.20471 12 6.96875C10.619 8.20471 9.75 10.0008 9.75 11.9999C9.75 13.9991 10.619 15.7952 12 17.0311Z" fill="#FC6020"/>
</svg>
