<svg width="25" height="25" viewBox="0 0 25 25" fill="none" xmlns="http://www.w3.org/2000/svg">
<path d="M9.5 5.5H7.5C6.39543 5.5 5.5 6.39543 5.5 7.5V19.5C5.5 20.6046 6.39543 21.5 7.5 21.5H17.5C18.6046 21.5 19.5 20.6046 19.5 19.5V7.5C19.5 6.39543 18.6046 5.5 17.5 5.5H15.5M9.5 5.5C9.5 6.60457 10.3954 7.5 11.5 7.5H13.5C14.6046 7.5 15.5 6.60457 15.5 5.5M9.5 5.5C9.5 4.39543 10.3954 3.5 11.5 3.5H13.5C14.6046 3.5 15.5 4.39543 15.5 5.5M12.5 12.5H15.5M12.5 16.5H15.5M9.5 12.5H9.51M9.5 16.5H9.51" stroke="#FBB03B" stroke-width="2" stroke-linecap="round"/>
</svg>
