<?xml version="1.0" encoding="UTF-8"?>
<svg version="1.1" xmlns="http://www.w3.org/2000/svg" width="64" height="64">
<path d="M0 0 C4.09789669 0.37943488 6.53958935 0.69305957 10 3 C10 3.99 10 4.98 10 6 C10.54938232 6.10022461 11.09876465 6.20044922 11.66479492 6.30371094 C14.17545761 6.77063861 16.681227 7.26007939 19.1875 7.75 C20.05181641 7.90726562 20.91613281 8.06453125 21.80664062 8.2265625 C28.30677017 9.52160747 31.95017619 11.26029352 36.01953125 16.69921875 C39.90784834 23.17974723 41.88410221 27.42198102 41 35 C45.62 35 50.24 35 55 35 C55.02291487 38.9693655 55.04284015 42.9385632 55.05493164 46.90795898 C55.05997057 48.25920386 55.06680177 49.61044326 55.07543945 50.96166992 C55.08752419 52.90020434 55.09269828 54.838778 55.09765625 56.77734375 C55.10289307 57.94515381 55.10812988 59.11296387 55.11352539 60.31616211 C55 63 55 63 54 64 C52.62960602 64.10829396 51.25376305 64.14899701 49.87915039 64.16113281 C48.56757713 64.17554413 48.56757713 64.17554413 47.22950745 64.19024658 C45.8029911 64.1966214 45.8029911 64.1966214 44.34765625 64.203125 C43.37718857 64.20882507 42.40672089 64.21452515 41.40684509 64.22039795 C39.34977311 64.22986293 37.29268586 64.23638785 35.2355957 64.24023438 C32.0793227 64.24994823 28.92369833 64.28096097 25.76757812 64.3125 C23.77344139 64.3190288 21.77929997 64.32427975 19.78515625 64.328125 C18.83616959 64.3404718 17.88718292 64.3528186 16.90943909 64.36553955 C15.59313759 64.3610379 15.59313759 64.3610379 14.25024414 64.35644531 C13.4760463 64.36009094 12.70184845 64.36373657 11.90419006 64.36749268 C11.27580734 64.24622009 10.64742462 64.12494751 10 64 C7.71349958 60.57024937 7.75337786 59.30418229 7.76953125 55.2734375 C7.77146484 54.1596875 7.77339844 53.0459375 7.77539062 51.8984375 C7.78763672 50.73570313 7.79988281 49.57296875 7.8125 48.375 C7.81314453 47.20453125 7.81378906 46.0340625 7.81445312 44.828125 C7.85980776 36.14019224 7.85980776 36.14019224 9 35 C11.18639453 34.92741054 13.37500389 34.91626217 15.5625 34.9375 C17.35880859 34.95103516 17.35880859 34.95103516 19.19140625 34.96484375 C20.11824219 34.97644531 21.04507812 34.98804688 22 35 C19.24525679 32.041673 16.58831918 30.02370296 13.0625 28.0625 C9.99967811 26.29946596 7.47931687 24.70285537 5.125 22.0625 C4.42375 21.381875 3.7225 20.70125 3 20 C1.65938457 20.30271961 0.32594105 20.63837971 -1 21 C-4.25 19.0625 -4.25 19.0625 -7 17 C-6.60561975 10.82137616 -4.49757159 4.49757159 0 0 Z M2 3 C0.02 6.96 -1.96 10.92 -4 15 C-1.525 15.99 -1.525 15.99 1 17 C1.86627399 15.40233897 2.71766465 13.79660056 3.5625 12.1875 C4.03816406 11.29417969 4.51382812 10.40085937 5.00390625 9.48046875 C6.33728333 6.93355424 6.33728333 6.93355424 5 4 C4.01 3.67 3.02 3.34 2 3 Z M8 9 C6.515 12.465 6.515 12.465 5 16 C8.60931316 20.81701832 12.02064376 23.57374963 17.3125 26.375 C17.95767578 26.72949219 18.60285156 27.08398438 19.26757812 27.44921875 C20.83900941 28.3105959 22.41867975 29.15691451 24 30 C23.4202155 26.87860203 22.55726822 25.22339548 20.375 22.9375 C19.199375 21.4834375 19.199375 21.4834375 18 20 C18.33 19.01 18.66 18.02 19 17 C20.27875 16.938125 21.5575 16.87625 22.875 16.8125 C23.59429688 16.77769531 24.31359375 16.74289063 25.0546875 16.70703125 C25.69664063 16.80371094 26.33859375 16.90039062 27 17 C27.99 18.485 27.99 18.485 29 20 C29.99 20 30.98 20 32 20 C30.75023244 16.34683329 30.32901247 15.21934164 27 13 C24.51563789 12.40929274 22.0709827 11.89205727 19.5625 11.4375 C11.2703125 9.87821691 11.2703125 9.87821691 8 9 Z M22 19 C22.99 20.485 22.99 20.485 24 22 C24.66 21.67 25.32 21.34 26 21 C24.68 20.34 23.36 19.68 22 19 Z M28 24 C26.86823843 26.86823843 26.86823843 26.86823843 27 29.5 C27 32 27 32 26 35 C27.62418745 35.08090971 29.24951745 35.13914995 30.875 35.1875 C31.77992187 35.22230469 32.68484375 35.25710937 33.6171875 35.29296875 C34.40351562 35.19628906 35.18984375 35.09960938 36 35 C38.27671738 32.25158089 38.27671738 32.25158089 37.8125 29.5 C36.91447755 26.73685401 36.42840184 25.5910219 34 24 C30.87450983 23.74951364 30.87450983 23.74951364 28 24 Z M12 38 C12 39.32 12 40.64 12 42 C14.31 42.33 16.62 42.66 19 43 C19 43.66 19 44.32 19 45 C16.69 45.33 14.38 45.66 12 46 C12 50.95 12 55.9 12 61 C25.2 61 38.4 61 52 61 C52 56.05 52 51.1 52 46 C44.08 46 36.16 46 28 46 C28 44.68 28 43.36 28 42 C35.92 42 43.84 42 52 42 C52 40.68 52 39.36 52 38 C38.8 38 25.6 38 12 38 Z " fill="#000000" transform="translate(8,0)"/>
<path d="M0 0 C1.06734375 -0.00128906 2.1346875 -0.00257812 3.234375 -0.00390625 C4.35328125 -0.00003906 5.4721875 0.00382812 6.625 0.0078125 C7.74390625 0.00394531 8.8628125 0.00007813 10.015625 -0.00390625 C11.61664063 -0.00197266 11.61664063 -0.00197266 13.25 0 C14.72339844 0.00169189 14.72339844 0.00169189 16.2265625 0.00341797 C18.625 0.1328125 18.625 0.1328125 20.625 1.1328125 C20.72265625 7.28515625 20.72265625 7.28515625 20.625 9.1328125 C19.625 10.1328125 19.625 10.1328125 17.03295898 10.24633789 C15.90704346 10.24110107 14.78112793 10.23586426 13.62109375 10.23046875 C12.40615234 10.22724609 11.19121094 10.22402344 9.93945312 10.22070312 C8.66005859 10.21232422 7.38066406 10.20394531 6.0625 10.1953125 C4.77923828 10.19080078 3.49597656 10.18628906 2.17382812 10.18164062 C-1.00916022 10.16980795 -4.19205762 10.15332318 -7.375 10.1328125 C-7.375 7.1628125 -7.375 4.1928125 -7.375 1.1328125 C-4.78776011 -0.16080744 -2.89386997 0.00332301 0 0 Z M-3.375 4.1328125 C-3.375 5.1228125 -3.375 6.1128125 -3.375 7.1328125 C3.225 7.1328125 9.825 7.1328125 16.625 7.1328125 C16.625 6.1428125 16.625 5.1528125 16.625 4.1328125 C10.025 4.1328125 3.425 4.1328125 -3.375 4.1328125 Z " fill="#000000" transform="translate(33.375,47.8671875)"/>
<path d="M0 0 C0.99 0.33 1.98 0.66 3 1 C2.67 1.99 2.34 2.98 2 4 C1.01 3.67 0.02 3.34 -1 3 C-0.67 2.01 -0.34 1.02 0 0 Z " fill="#000000" transform="translate(31,42)"/>
</svg>
