<svg width="38" height="44" viewBox="0 0 38 44" fill="none" xmlns="http://www.w3.org/2000/svg">
<path d="M37.8581 10.1254V43.9998H1.10742V0H27.7328L32.4488 4.71616L37.8581 10.1254Z" fill="#B12A27"/>
<path d="M17.7681 2.94531H0.142578V10.8316H17.7681V2.94531Z" fill="#F2F2F2"/>
<path d="M6.46516 5.53684C6.38739 5.34898 6.28375 5.18055 6.14127 5.03806C5.99878 4.89558 5.82381 4.77896 5.62298 4.70119C5.4157 4.61697 5.18246 4.57812 4.92336 4.57812H2.98633V9.57926H3.96455V7.69405H4.92336C5.18246 7.69405 5.4157 7.6552 5.62298 7.57098C5.82381 7.49321 5.9987 7.37668 6.14127 7.23411C6.28384 7.09162 6.38748 6.92963 6.46516 6.73533C6.53641 6.54747 6.57534 6.34663 6.57534 6.13935C6.57525 5.92554 6.53641 5.7247 6.46516 5.53684ZM5.40916 6.6316C5.27957 6.75466 5.09824 6.81946 4.87798 6.81946H3.96455V5.44609H4.87798C5.09824 5.44609 5.27966 5.51089 5.40916 5.6404C5.53223 5.76346 5.59702 5.9319 5.59702 6.13918C5.59711 6.3401 5.53231 6.50854 5.40916 6.6316Z" fill="#B12A27"/>
<path d="M11.1428 6.51507C11.1364 6.34019 11.1298 6.18473 11.1104 6.04216C11.091 5.89959 11.0586 5.77008 11.0132 5.64702C10.9678 5.5304 10.9096 5.41378 10.8318 5.31014C10.6569 5.05748 10.4431 4.86962 10.2034 4.75301C9.95721 4.63639 9.66571 4.57812 9.32239 4.57812H7.52148V9.57926H9.32239C9.66571 9.57926 9.95721 9.52099 10.2034 9.40438C10.4431 9.28776 10.6569 9.0999 10.8318 8.84724C10.9096 8.7436 10.9678 8.62698 11.0132 8.51037C11.0586 8.3873 11.091 8.25771 11.1104 8.11523C11.1298 7.97274 11.1363 7.8172 11.1428 7.64231C11.1493 7.47387 11.1492 7.28602 11.1492 7.07873C11.1492 6.87145 11.1493 6.68351 11.1428 6.51507ZM10.1646 7.58405C10.1646 7.73306 10.1516 7.84968 10.1386 7.95332C10.1256 8.05052 10.1062 8.14118 10.0804 8.20598C10.0545 8.27722 10.0156 8.34202 9.97027 8.40028C9.80828 8.60756 9.56216 8.70476 9.23826 8.70476H8.49327V5.44618H9.23826C9.56216 5.44618 9.80837 5.54982 9.97027 5.7571C10.0156 5.81537 10.0545 5.87372 10.0804 5.94496C10.1062 6.0162 10.1257 6.10042 10.1386 6.20406C10.1516 6.30126 10.1646 6.42432 10.1646 6.5668C10.171 6.70937 10.171 6.88426 10.171 7.07856C10.1711 7.27304 10.1711 7.44148 10.1646 7.58405Z" fill="#B12A27"/>
<path d="M15.3209 5.44618V4.57812H12.0234V9.57926H13.0017V7.55165H14.9775V6.67706H13.0017V5.44618H15.3209Z" fill="#B12A27"/>
<path d="M6.46516 5.53684C6.38739 5.34898 6.28375 5.18055 6.14127 5.03806C5.99878 4.89558 5.82381 4.77896 5.62298 4.70119C5.4157 4.61697 5.18246 4.57812 4.92336 4.57812H2.98633V9.57926H3.96455V7.69405H4.92336C5.18246 7.69405 5.4157 7.6552 5.62298 7.57098C5.82381 7.49321 5.9987 7.37668 6.14127 7.23411C6.28384 7.09162 6.38748 6.92963 6.46516 6.73533C6.53641 6.54747 6.57534 6.34663 6.57534 6.13935C6.57525 5.92554 6.53641 5.7247 6.46516 5.53684ZM5.40916 6.6316C5.27957 6.75466 5.09824 6.81946 4.87798 6.81946H3.96455V5.44609H4.87798C5.09824 5.44609 5.27966 5.51089 5.40916 5.6404C5.53223 5.76346 5.59702 5.9319 5.59702 6.13918C5.59711 6.3401 5.53231 6.50854 5.40916 6.6316Z" fill="#B12A27"/>
<path opacity="0.08" d="M37.8581 10.128V44.0024H1.10742V36.0602L18.2875 18.88L19.3046 17.863L19.8682 17.2993L20.8076 16.36L21.9218 15.2457L32.4488 4.71875L37.8581 10.128Z" fill="#040000"/>
<path d="M37.857 10.1265H27.7305V0L37.857 10.1265Z" fill="#771B1B"/>
<path d="M32.6105 31.8529C32.3967 31.4772 32.1052 31.1209 31.7424 30.797C31.4445 30.5249 31.0946 30.2722 30.6994 30.039C29.1058 29.0997 26.832 28.6462 23.7418 28.6462H23.4309C23.2625 28.4908 23.0876 28.3353 22.9062 28.1733C21.7336 27.1174 20.8008 25.9707 20.0752 24.6945C21.5004 21.5526 22.1806 18.754 22.0964 16.37C22.0834 15.9684 22.0251 15.5926 21.9215 15.2428C21.766 14.6792 21.5069 14.1804 21.1441 13.7722C21.1377 13.7658 21.1377 13.7658 21.1311 13.7593C20.5546 13.1115 19.7513 12.7422 18.935 12.7422C18.1122 12.7422 17.3544 13.0985 16.8037 13.7528C16.2595 14.4006 15.968 15.2882 15.955 16.3311C15.9356 17.9247 16.0651 19.4341 16.3373 20.8269C16.3632 20.9371 16.3827 21.0472 16.4085 21.1573C16.6806 22.4206 17.0823 23.619 17.6005 24.7332C16.9915 25.9705 16.3761 27.0394 15.9485 27.765C15.6246 28.3157 15.2683 28.8923 14.899 29.4688C13.2342 29.7668 11.8219 30.1296 10.5911 30.5831C8.92621 31.1856 7.59168 31.9629 6.63288 32.8893C6.01095 33.4853 5.58986 34.1202 5.38257 34.7809C5.16232 35.4611 5.17529 36.1413 5.42142 36.7503C5.64812 37.3139 6.05624 37.7868 6.60048 38.1107C6.73007 38.1885 6.86611 38.2532 7.0086 38.3115C7.42325 38.48 7.87665 38.5706 8.34957 38.5706C9.44441 38.5706 10.5716 38.0977 11.5238 37.2491C13.2989 35.6619 15.1322 33.1095 16.2141 31.4964C17.1015 31.3604 18.0668 31.2438 19.1552 31.1271C20.4379 30.9975 21.5716 30.9199 22.6016 30.8809C22.9191 31.166 23.2235 31.4381 23.515 31.6972C25.1346 33.1418 26.3654 34.1848 27.4797 34.9168C27.4797 34.9233 27.4861 34.9233 27.4927 34.9233C27.9332 35.2148 28.3543 35.4544 28.7754 35.6488C29.2483 35.8691 29.7276 35.9857 30.22 35.9857C30.8419 35.9857 31.4249 35.7978 31.9108 35.4545C32.4031 35.0982 32.7594 34.5865 32.9214 34.0099C33.1093 33.3169 32.9992 32.5461 32.6105 31.8529ZM18.2872 18.8771C18.1965 18.0738 18.1576 17.2381 18.1706 16.3571C18.1836 15.5214 18.488 14.9577 18.935 14.9577C19.2719 14.9577 19.6282 15.2622 19.7901 15.8452C19.8355 16.0201 19.8679 16.2209 19.8743 16.4476C19.8873 16.7197 19.8807 17.0048 19.8679 17.2963C19.829 18.119 19.6864 18.9935 19.4403 19.9329C19.2913 20.5354 19.097 21.1638 18.8573 21.818C18.5852 20.8983 18.3908 19.92 18.2872 18.8771ZM7.4816 35.9276C7.37143 35.6555 7.49457 35.1308 8.16832 34.483C9.19837 33.4983 10.8114 32.7209 13.0594 32.1314C12.6318 32.7144 12.2107 33.2457 11.8026 33.7315C11.1807 34.4829 10.5847 35.1178 10.047 35.5972C9.58707 36.0117 9.08175 36.2709 8.60239 36.3357C8.51818 36.3487 8.43396 36.3551 8.34974 36.3551C7.92856 36.3552 7.58524 36.1868 7.4816 35.9276ZM17.8337 29.0414L17.8791 28.9701L17.8078 28.9831C17.8208 28.9507 17.8402 28.9183 17.8597 28.8924C18.1317 28.4325 18.4751 27.843 18.8443 27.1628L18.8767 27.234L18.961 27.0591C19.233 27.4478 19.5311 27.8301 19.842 28.1993C19.991 28.3741 20.1465 28.5426 20.3019 28.711L20.1983 28.7175L20.2889 28.8017C20.0233 28.8211 19.7448 28.847 19.4662 28.8729C19.2913 28.8923 19.1099 28.9053 18.9285 28.9247C18.5528 28.9636 18.1836 29.0025 17.8337 29.0414ZM28.7365 33.0837C27.9656 32.5913 27.104 31.8982 26.0416 30.9718C27.551 31.1272 28.7365 31.4577 29.5787 31.95C29.948 32.1638 30.2265 32.3841 30.4144 32.5978C30.7253 32.9281 30.8355 33.2262 30.7771 33.427C30.7253 33.6278 30.4986 33.7639 30.22 33.7639C30.058 33.7639 29.8896 33.725 29.7147 33.6408C29.4166 33.4983 29.1057 33.3234 28.7754 33.1096C28.7624 33.1096 28.7495 33.0967 28.7365 33.0837Z" fill="#F2F2F2"/>
</svg>
