<svg width="24" height="24" viewBox="0 0 24 24" fill="none" xmlns="http://www.w3.org/2000/svg">
<g clip-path="url(#clip0_27037_3077)">
<path d="M23.8385 9.80859C23.8385 9.80859 24.0001 11.4868 24.0001 12.0423C24.0001 12.629 23.8385 14.3774 23.8385 14.3774C23.8382 14.38 23.8378 14.3826 23.8374 14.3852C23.4591 17.0066 22.4018 19.3671 20.4723 21.0641L16.507 18.1479C16.8084 17.9537 17.0945 17.7388 17.3632 17.505C18.3198 16.6733 18.7834 15.5999 18.9973 14.3852H12.3047V9.80859H23.8386H23.8385Z" fill="#4386F7"/>
<path d="M20.5277 3.13884L16.9999 6.53029C15.7273 5.49414 14.1727 4.73445 12.393 4.73445C9.1229 4.73445 6.34308 6.78555 5.32719 9.64307L1.30078 6.68185C3.3285 2.73545 7.51198 0 12.3045 0C15.4405 0 18.3546 1.23639 20.5199 3.13204C20.5225 3.13433 20.5252 3.13654 20.5276 3.13884H20.5277Z" fill="#EE4131"/>
<path d="M20.4719 21.0653C20.4589 21.0768 20.4457 21.0882 20.4327 21.0996C18.2711 22.9791 15.3569 24.001 12.2359 24.001C7.44078 24.001 3.28976 21.3055 1.2832 17.3804L5.31657 14.4141C6.32415 17.2865 9.11157 19.3515 12.3926 19.3515C13.9121 19.3515 15.3264 18.9095 16.5066 18.149L20.4719 21.0652V21.0653Z" fill="#33A951"/>
<path d="M5.31675 14.4148L1.28339 17.3812C0.462098 15.7746 0 13.9622 0 12.0442C0 10.1262 0.469062 8.30181 1.30066 6.68359L5.32706 9.64481C5.05975 10.3964 4.91452 11.2037 4.91452 12.0442C4.91452 12.8847 5.05604 13.6714 5.31675 14.4147V14.4148Z" fill="#FFBE00"/>
</g>
<defs>
<clipPath id="clip0_27037_3077">
<rect width="24" height="24" fill="white"/>
</clipPath>
</defs>
</svg>
