<svg width="25" height="25" viewBox="0 0 25 25" fill="none" xmlns="http://www.w3.org/2000/svg">
<path d="M3.5 12.5L5.5 10.5M5.5 10.5L12.5 3.5L19.5 10.5M5.5 10.5V20.5C5.5 21.0523 5.94772 21.5 6.5 21.5H9.5M19.5 10.5L21.5 12.5M19.5 10.5V20.5C19.5 21.0523 19.0523 21.5 18.5 21.5H15.5M9.5 21.5C10.0523 21.5 10.5 21.0523 10.5 20.5V16.5C10.5 15.9477 10.9477 15.5 11.5 15.5H13.5C14.0523 15.5 14.5 15.9477 14.5 16.5V20.5C14.5 21.0523 14.9477 21.5 15.5 21.5M9.5 21.5H15.5" stroke="#FBB03B" stroke-width="2" stroke-linecap="round" stroke-linejoin="round"/>
</svg>
