<svg width="37" height="33" viewBox="0 0 37 33" fill="none" xmlns="http://www.w3.org/2000/svg">
<path d="M19.0785 8.06327L19.041 8.10649L18.7936 8.0327C18.3794 7.90916 18.1428 7.47337 18.2665 7.05831L19.0785 8.06327ZM19.0785 8.06327C19.393 8.03877 19.6737 7.82423 19.7684 7.50509C20.3419 5.57802 22.1513 4.22963 24.165 4.22963C24.5977 4.22963 24.9485 3.87876 24.9485 3.44607C24.9485 3.01336 24.5977 2.6625 24.165 2.6625C21.3692 2.6625 19.0208 4.52397 18.2666 7.05808L19.0785 8.06327Z" fill="#FBB03B" stroke="white" stroke-width="0.8"/>
<path d="M29.5345 22.2456H27.2332C27.0214 22.2456 26.8496 22.0738 26.8496 21.862C26.8496 21.6502 27.0214 21.4784 27.2332 21.4784H29.5345C32.7068 21.4784 35.288 18.8973 35.288 15.725C35.288 12.5527 32.7068 9.97159 29.5345 9.97159H29.4792C29.368 9.97159 29.2622 9.92337 29.1893 9.83926C29.1165 9.75515 29.0836 9.64364 29.0995 9.5335C29.1337 9.2946 29.151 9.0546 29.151 8.82091C29.151 6.0716 26.9139 3.83457 24.1646 3.83457C23.095 3.83457 22.075 4.16882 21.2147 4.80142C21.0257 4.94032 20.7572 4.87868 20.6479 4.67073C18.2115 0.0312934 11.8478 -0.591736 8.54852 3.44417C7.15868 5.14444 6.61259 7.35621 7.05018 9.51188C7.0984 9.74996 6.9162 9.97188 6.67428 9.97188H6.52059C3.34828 9.97188 0.767161 12.553 0.767161 15.7253C0.767161 18.8976 3.34828 21.4787 6.52059 21.4787H8.82193C9.03371 21.4787 9.20549 21.6505 9.20549 21.8623C9.20549 22.0741 9.03371 22.2459 8.82193 22.2459H6.52059C2.92521 22.2459 0 19.3207 0 15.7253C0 12.2308 2.76327 9.36938 6.21949 9.21157C5.89483 6.9751 6.51566 4.71921 7.95454 2.95869C11.4869 -1.36267 18.2563 -0.878302 21.1179 3.94033C22.0308 3.368 23.0754 3.06776 24.1645 3.06776C27.4955 3.06776 30.1349 5.90284 29.904 9.21514C33.3284 9.4072 36.0549 12.2535 36.0549 15.725C36.0549 19.3207 33.1297 22.2456 29.5344 22.2456L29.5345 22.2456Z" fill="#FBB03B"/>
<path d="M7.9877 21.6517C7.9877 27.1601 12.4685 31.6408 17.9769 31.6408C23.4853 31.6408 27.966 27.16 27.966 21.6517C27.966 16.1432 23.4853 11.6625 17.9769 11.6625C12.4684 11.6625 7.9877 16.1433 7.9877 21.6517ZM9.555 21.6517C9.555 17.0083 13.3334 13.2298 17.9769 13.2298C22.6202 13.2298 26.3987 17.0082 26.3987 21.6517C26.3987 26.295 22.6202 30.0735 17.9769 30.0735C13.3335 30.0735 9.555 26.2951 9.555 21.6517Z" fill="#FBB03B" stroke="white" stroke-width="0.8"/>
<path d="M17.4711 25.5038C17.4711 25.8798 17.776 26.1846 18.1519 26.1846C18.5277 26.1846 18.8327 25.8802 18.8327 25.5038V18.2027C18.8327 17.8267 18.5279 17.5219 18.1519 17.5219C17.7759 17.5219 17.4711 17.8267 17.4711 18.2027V25.5038Z" fill="#FBB03B" stroke="#FBB03B" stroke-width="0.8"/>
<path d="M19.9164 20.9306C19.9164 20.9306 19.9164 20.9306 19.9164 20.9306L18.1514 19.1656L16.3866 20.9304C16.3865 20.9304 16.3865 20.9304 16.3864 20.9305L16.3863 20.9306L19.9164 20.9306ZM19.9164 20.9306C20.0492 21.0634 20.2243 21.13 20.3978 21.13" fill="#FBB03B" stroke="#FBB03B" stroke-width="0.8"/>
</svg>
