<svg width="25" height="25" viewBox="0 0 25 25" fill="none" xmlns="http://www.w3.org/2000/svg">
<path d="M12.5 4.85418C13.2329 4.02375 14.3053 3.5 15.5 3.5C17.7091 3.5 19.5 5.29086 19.5 7.5C19.5 9.70914 17.7091 11.5 15.5 11.5C14.3053 11.5 13.2329 10.9762 12.5 10.1458M15.5 21.5H3.5V20.5C3.5 17.1863 6.18629 14.5 9.5 14.5C12.8137 14.5 15.5 17.1863 15.5 20.5V21.5ZM15.5 21.5H21.5V20.5C21.5 17.1863 18.8137 14.5 15.5 14.5C14.4071 14.5 13.3825 14.7922 12.5 15.3027M13.5 7.5C13.5 9.70914 11.7091 11.5 9.5 11.5C7.29086 11.5 5.5 9.70914 5.5 7.5C5.5 5.29086 7.29086 3.5 9.5 3.5C11.7091 3.5 13.5 5.29086 13.5 7.5Z" stroke="#FBB03B" stroke-width="2" stroke-linecap="round" stroke-linejoin="round"/>
</svg>
