<svg width="54" height="54" viewBox="0 0 54 54" fill="none" xmlns="http://www.w3.org/2000/svg">
<circle cx="27" cy="27" r="27" fill="#FBB03B"/>
<path d="M17.2548 35.222C20.1329 33.5951 23.458 32.6667 27 32.6667C30.542 32.6667 33.8671 33.5951 36.7452 35.222M31.25 24.1667C31.25 26.5139 29.3472 28.4167 27 28.4167C24.6528 28.4167 22.75 26.5139 22.75 24.1667C22.75 21.8195 24.6528 19.9167 27 19.9167C29.3472 19.9167 31.25 21.8195 31.25 24.1667ZM39.75 27C39.75 34.0416 34.0416 39.75 27 39.75C19.9584 39.75 14.25 34.0416 14.25 27C14.25 19.9584 19.9584 14.25 27 14.25C34.0416 14.25 39.75 19.9584 39.75 27Z" stroke="#0D0D0D" stroke-width="2" stroke-linecap="round" stroke-linejoin="round"/>
</svg>
